<svg xmlns="http://www.w3.org/2000/svg" width="200" height="200" viewBox="0 0 200 200">
  <!-- Horizontal lines -->
  <line x1="0" y1="40" x2="60" y2="40" stroke="#64ffda" stroke-width="1" opacity="0.15"/>
  <line x1="100" y1="40" x2="200" y2="40" stroke="#64ffda" stroke-width="1" opacity="0.15"/>
  <line x1="0" y1="100" x2="40" y2="100" stroke="#64ffda" stroke-width="1" opacity="0.15"/>
  <line x1="80" y1="100" x2="120" y2="100" stroke="#64ffda" stroke-width="1" opacity="0.15"/>
  <line x1="160" y1="100" x2="200" y2="100" stroke="#64ffda" stroke-width="1" opacity="0.15"/>
  <line x1="20" y1="160" x2="90" y2="160" stroke="#64ffda" stroke-width="1" opacity="0.15"/>
  <line x1="140" y1="160" x2="180" y2="160" stroke="#64ffda" stroke-width="1" opacity="0.15"/>

  <!-- Vertical lines -->
  <line x1="40" y1="0" x2="40" y2="40" stroke="#64ffda" stroke-width="1" opacity="0.15"/>
  <line x1="100" y1="40" x2="100" y2="100" stroke="#64ffda" stroke-width="1" opacity="0.15"/>
  <line x1="160" y1="100" x2="160" y2="160" stroke="#64ffda" stroke-width="1" opacity="0.15"/>
  <line x1="60" y1="40" x2="60" y2="90" stroke="#64ffda" stroke-width="1" opacity="0.15"/>
  <line x1="140" y1="110" x2="140" y2="160" stroke="#64ffda" stroke-width="1" opacity="0.15"/>

  <!-- Connection nodes -->
  <circle cx="40" cy="40" r="3" fill="#64ffda" opacity="0.2"/>
  <circle cx="100" cy="40" r="3" fill="#64ffda" opacity="0.2"/>
  <circle cx="60" cy="40" r="2" fill="#64ffda" opacity="0.15"/>
  <circle cx="100" cy="100" r="3" fill="#64ffda" opacity="0.2"/>
  <circle cx="40" cy="100" r="2" fill="#64ffda" opacity="0.15"/>
  <circle cx="80" cy="100" r="2" fill="#64ffda" opacity="0.15"/>
  <circle cx="120" cy="100" r="2" fill="#64ffda" opacity="0.15"/>
  <circle cx="160" cy="100" r="3" fill="#64ffda" opacity="0.2"/>
  <circle cx="160" cy="160" r="3" fill="#64ffda" opacity="0.2"/>
  <circle cx="140" cy="160" r="2" fill="#64ffda" opacity="0.15"/>
  <circle cx="90" cy="160" r="2" fill="#64ffda" opacity="0.15"/>
  <circle cx="20" cy="160" r="2" fill="#64ffda" opacity="0.15"/>
</svg>
